<svg width="131" height="30" viewBox="0 0 131 30" fill="none" xmlns="http://www.w3.org/2000/svg">
<path fill-rule="evenodd" clip-rule="evenodd" d="M14.9999 24.4202C12.6994 24.4202 10.6073 23.1216 9.63968 21.1061C9.43534 20.6807 9.62614 20.1726 10.0646 19.9743C10.5031 19.776 11.0268 19.9612 11.2311 20.3866C11.9118 21.8046 13.3814 22.7159 14.9999 22.7159C16.6198 22.7159 18.0894 21.8046 18.7688 20.3866C18.9731 19.9599 19.4955 19.776 19.9353 19.9743C20.3738 20.1726 20.5646 20.6794 20.3602 21.1061C19.3926 23.1216 17.3005 24.4202 14.9999 24.4202ZM12.3083 3.78081C11.6168 4.45177 11.1878 5.37613 11.1878 6.3911V7.48484H14.9999H18.8121V6.3911C18.8121 5.37482 18.3831 4.45045 17.6916 3.78081C16.1989 2.33255 13.8023 2.33255 12.3083 3.78081ZM5.62183 29H14.9999H24.3781C25.8179 29 27.0738 27.8537 26.9966 26.4593L26.0872 10.0255C26.0101 8.63111 24.9085 7.48484 23.4687 7.48484H20.5673V6.3911C20.5673 4.90476 19.9407 3.55366 18.9325 2.57546C16.766 0.474628 13.2339 0.474628 11.0674 2.57677C10.0592 3.55497 9.43262 4.90607 9.43262 6.39241V7.48616H6.53122C5.09135 7.48616 3.98979 8.63242 3.91266 10.0269L3.00326 26.4606C2.92748 27.855 4.18196 29 5.62183 29Z" fill="#02B290"/>
<path d="M34.2912 24V10.9091H42.6776V12.897H36.6626V16.451H42.1023V18.4389H36.6626V24H34.2912ZM44.5952 24V14.1818H46.8388V15.8182H46.9411C47.12 15.2514 47.4268 14.8146 47.8615 14.5078C48.3004 14.1967 48.8011 14.0412 49.3636 14.0412C49.4915 14.0412 49.6342 14.0476 49.7919 14.0604C49.9538 14.0689 50.0881 14.0838 50.1946 14.1051V16.2337C50.0966 16.1996 49.9411 16.1697 49.728 16.1442C49.5192 16.1143 49.3168 16.0994 49.1207 16.0994C48.6989 16.0994 48.3196 16.1911 47.983 16.3743C47.6506 16.5533 47.3885 16.8026 47.1967 17.1222C47.005 17.4418 46.9091 17.8104 46.9091 18.228V24H44.5952ZM55.6742 24.1918C54.6898 24.1918 53.8397 23.9872 53.1238 23.5781C52.4121 23.1648 51.8645 22.581 51.481 21.8267C51.0975 21.0682 50.9057 20.1754 50.9057 19.1484C50.9057 18.1385 51.0975 17.2521 51.481 16.4893C51.8688 15.7223 52.41 15.1257 53.1046 14.6996C53.7992 14.2692 54.6152 14.054 55.5527 14.054C56.1578 14.054 56.7289 14.152 57.2658 14.348C57.807 14.5398 58.2843 14.8381 58.6976 15.2429C59.1152 15.6477 59.4434 16.1634 59.682 16.7898C59.9206 17.4119 60.04 18.1534 60.04 19.0142V19.7237H51.9924V18.1641H57.8219C57.8176 17.7209 57.7218 17.3267 57.5343 16.9815C57.3468 16.6321 57.0847 16.3572 56.748 16.157C56.4157 15.9567 56.0279 15.8565 55.5847 15.8565C55.1117 15.8565 54.6962 15.9716 54.3382 16.2017C53.9803 16.4276 53.7012 16.7259 53.5009 17.0966C53.3049 17.4631 53.2047 17.8658 53.2005 18.3047V19.6662C53.2005 20.2372 53.3049 20.7273 53.5137 21.1364C53.7225 21.5412 54.0144 21.8523 54.3894 22.0696C54.7644 22.2827 55.2033 22.3892 55.7061 22.3892C56.0428 22.3892 56.3475 22.3423 56.6202 22.2486C56.8929 22.1506 57.1294 22.0078 57.3297 21.8203C57.53 21.6328 57.6813 21.4006 57.7836 21.1236L59.9441 21.3665C59.8077 21.9375 59.5478 22.4361 59.1642 22.8622C58.785 23.2841 58.2992 23.6122 57.7069 23.8466C57.1145 24.0767 56.437 24.1918 55.6742 24.1918ZM69.7575 16.777L67.6481 17.0071C67.5884 16.794 67.484 16.5938 67.3349 16.4062C67.19 16.2188 66.994 16.0675 66.7468 15.9524C66.4996 15.8374 66.1971 15.7798 65.8391 15.7798C65.3576 15.7798 64.9528 15.8842 64.6246 16.093C64.3008 16.3018 64.141 16.5724 64.1452 16.9048C64.141 17.1903 64.2454 17.4226 64.4585 17.6016C64.6758 17.7805 65.0337 17.9276 65.5323 18.0426L67.207 18.4006C68.136 18.6009 68.8263 18.9183 69.2781 19.353C69.734 19.7876 69.9641 20.3565 69.9684 21.0597C69.9641 21.6776 69.783 22.223 69.4251 22.696C69.0714 23.1648 68.5792 23.5312 67.9485 23.7955C67.3178 24.0597 66.5934 24.1918 65.7752 24.1918C64.5735 24.1918 63.6062 23.9403 62.8732 23.4375C62.1403 22.9304 61.7035 22.2251 61.5629 21.3217L63.8192 21.1044C63.9215 21.5476 64.1388 21.8821 64.4712 22.108C64.8036 22.3338 65.2362 22.4467 65.7688 22.4467C66.3185 22.4467 66.7596 22.3338 67.092 22.108C67.4286 21.8821 67.5969 21.603 67.5969 21.2706C67.5969 20.9893 67.4883 20.7571 67.271 20.5739C67.0579 20.3906 66.7255 20.25 66.2738 20.152L64.5991 19.8004C63.6573 19.6044 62.9606 19.2741 62.5089 18.8097C62.0572 18.3409 61.8335 17.7486 61.8377 17.0327C61.8335 16.4276 61.9975 15.9034 62.3299 15.4602C62.6665 15.0128 63.1332 14.6676 63.7298 14.4247C64.3306 14.1776 65.0231 14.054 65.8072 14.054C66.9577 14.054 67.8633 14.299 68.5238 14.7891C69.1886 15.2791 69.5998 15.9418 69.7575 16.777ZM74.1903 18.2472V24H71.8764V10.9091H74.1392V15.8501H74.2543C74.4844 15.2962 74.8402 14.8594 75.3217 14.5398C75.8075 14.2159 76.4254 14.054 77.1754 14.054C77.8572 14.054 78.4517 14.1967 78.9588 14.4822C79.4659 14.7678 79.858 15.1854 80.1349 15.7351C80.4162 16.2848 80.5568 16.956 80.5568 17.7486V24H78.2429V18.1065C78.2429 17.446 78.0724 16.9325 77.7315 16.5661C77.3949 16.1953 76.9219 16.0099 76.3125 16.0099C75.9034 16.0099 75.5369 16.0994 75.2131 16.2784C74.8935 16.4531 74.642 16.7067 74.4588 17.0391C74.2798 17.3714 74.1903 17.7741 74.1903 18.2472ZM83.0178 24V10.9091H91.4041V12.897H85.3892V16.451H90.8288V18.4389H85.3892V24H83.0178ZM96.1998 24.1982C95.5776 24.1982 95.0172 24.0874 94.5186 23.8658C94.0243 23.6399 93.6323 23.3075 93.3425 22.8686C93.057 22.4297 92.9142 21.8885 92.9142 21.245C92.9142 20.6911 93.0165 20.233 93.2211 19.8707C93.4256 19.5085 93.7047 19.2188 94.0584 19.0014C94.4121 18.7841 94.8105 18.62 95.2537 18.5092C95.7012 18.3942 96.1635 18.3111 96.6408 18.2599C97.2161 18.2003 97.6827 18.147 98.0407 18.1001C98.3986 18.049 98.6586 17.9723 98.8205 17.87C98.9867 17.7635 99.0698 17.5994 99.0698 17.3778V17.3395C99.0698 16.858 98.927 16.4851 98.6415 16.2209C98.356 15.9567 97.9448 15.8246 97.4078 15.8246C96.8411 15.8246 96.3915 15.9482 96.0591 16.1953C95.731 16.4425 95.5094 16.7344 95.3944 17.071L93.2338 16.7642C93.4043 16.1676 93.6855 15.669 94.0776 15.2685C94.4696 14.8636 94.949 14.5611 95.5158 14.3608C96.0826 14.1562 96.709 14.054 97.3951 14.054C97.8681 14.054 98.339 14.1094 98.8077 14.2202C99.2765 14.331 99.7047 14.5142 100.093 14.7699C100.48 15.0213 100.791 15.3643 101.026 15.799C101.264 16.2337 101.384 16.777 101.384 17.429V24H99.1593V22.6513H99.0826C98.9419 22.924 98.7438 23.1797 98.4881 23.4183C98.2367 23.6527 97.9192 23.8423 97.5357 23.9872C97.1564 24.1278 96.7111 24.1982 96.1998 24.1982ZM96.8006 22.4979C97.2651 22.4979 97.6678 22.4062 98.0087 22.223C98.3496 22.0355 98.6117 21.7884 98.7949 21.4815C98.9824 21.1747 99.0762 20.8402 99.0762 20.478V19.321C99.0037 19.3807 98.8801 19.4361 98.7054 19.4872C98.535 19.5384 98.3432 19.5831 98.1301 19.6214C97.9171 19.6598 97.7061 19.6939 97.4973 19.7237C97.2885 19.7536 97.1074 19.7791 96.954 19.8004C96.6088 19.8473 96.2999 19.924 96.0272 20.0305C95.7544 20.1371 95.5392 20.2862 95.3816 20.478C95.2239 20.6655 95.1451 20.9084 95.1451 21.2067C95.1451 21.6328 95.3006 21.9545 95.6117 22.1719C95.9228 22.3892 96.3191 22.4979 96.8006 22.4979ZM103.71 24V14.1818H105.954V15.8182H106.056C106.235 15.2514 106.542 14.8146 106.977 14.5078C107.416 14.1967 107.916 14.0412 108.479 14.0412C108.607 14.0412 108.749 14.0476 108.907 14.0604C109.069 14.0689 109.203 14.0838 109.31 14.1051V16.2337C109.212 16.1996 109.056 16.1697 108.843 16.1442C108.634 16.1143 108.432 16.0994 108.236 16.0994C107.814 16.0994 107.435 16.1911 107.098 16.3743C106.766 16.5533 106.504 16.8026 106.312 17.1222C106.12 17.4418 106.024 17.8104 106.024 18.228V24H103.71ZM114.789 24.1918C113.805 24.1918 112.955 23.9872 112.239 23.5781C111.527 23.1648 110.98 22.581 110.596 21.8267C110.213 21.0682 110.021 20.1754 110.021 19.1484C110.021 18.1385 110.213 17.2521 110.596 16.4893C110.984 15.7223 111.525 15.1257 112.22 14.6996C112.914 14.2692 113.73 14.054 114.668 14.054C115.273 14.054 115.844 14.152 116.381 14.348C116.922 14.5398 117.4 14.8381 117.813 15.2429C118.23 15.6477 118.559 16.1634 118.797 16.7898C119.036 17.4119 119.155 18.1534 119.155 19.0142V19.7237H111.108V18.1641H116.937C116.933 17.7209 116.837 17.3267 116.65 16.9815C116.462 16.6321 116.2 16.3572 115.863 16.157C115.531 15.9567 115.143 15.8565 114.7 15.8565C114.227 15.8565 113.811 15.9716 113.453 16.2017C113.096 16.4276 112.816 16.7259 112.616 17.0966C112.42 17.4631 112.32 17.8658 112.316 18.3047V19.6662C112.316 20.2372 112.42 20.7273 112.629 21.1364C112.838 21.5412 113.13 21.8523 113.505 22.0696C113.88 22.2827 114.319 22.3892 114.821 22.3892C115.158 22.3892 115.463 22.3423 115.735 22.2486C116.008 22.1506 116.245 22.0078 116.445 21.8203C116.645 21.6328 116.797 21.4006 116.899 21.1236L119.059 21.3665C118.923 21.9375 118.663 22.4361 118.279 22.8622C117.9 23.2841 117.414 23.6122 116.822 23.8466C116.23 24.0767 115.552 24.1918 114.789 24.1918Z" fill="black"/>
</svg>
